<svg width="320" height="120" viewBox="0 0 320 120" fill="none" xmlns="http://www.w3.org/2000/svg">
<rect width="320" height="120" fill="#1E1E1E"/>
<g clip-path="url(#clip0_0_1)">
<path d="M54 112L168.5 8L283 112" stroke="url(#paint0_linear_0_1)" stroke-width="6" stroke-linecap="round" stroke-linejoin="round"/>
<path d="M166 36H156C155.448 36 155 36.4477 155 37V47C155 47.5523 155.448 48 156 48H166C166.552 48 167 47.5523 167 47V37C167 36.4477 166.552 36 166 36Z" fill="url(#paint1_linear_0_1)"/>
<path opacity="0.95" d="M182 36H172C171.448 36 171 36.4477 171 37V47C171 47.5523 171.448 48 172 48H182C182.552 48 183 47.5523 183 47V37C183 36.4477 182.552 36 182 36Z" fill="url(#paint2_linear_0_1)"/>
<path opacity="0.9" d="M166 52H156C155.448 52 155 52.4477 155 53V63C155 63.5523 155.448 64 156 64H166C166.552 64 167 63.5523 167 63V53C167 52.4477 166.552 52 166 52Z" fill="url(#paint3_linear_0_1)"/>
<path opacity="0.85" d="M182 52H172C171.448 52 171 52.4477 171 53V63C171 63.5523 171.448 64 172 64H182C182.552 64 183 63.5523 183 63V53C183 52.4477 182.552 52 182 52Z" fill="url(#paint4_linear_0_1)"/>
<mask id="path-6-inside-1_0_1" fill="white">
<path d="M119.025 73.6364H128.297V104.57C128.297 107.429 127.654 109.913 126.369 112.021C125.098 114.13 123.329 115.754 121.062 116.895C118.794 118.036 116.159 118.607 113.155 118.607C110.483 118.607 108.057 118.137 105.877 117.199C103.71 116.245 101.992 114.801 100.721 112.866C99.4503 110.917 98.8221 108.469 98.8365 105.523H108.173C108.202 106.692 108.44 107.696 108.888 108.534C109.35 109.357 109.978 109.992 110.772 110.44C111.581 110.873 112.534 111.09 113.632 111.09C114.787 111.09 115.762 110.844 116.556 110.353C117.365 109.848 117.978 109.111 118.397 108.144C118.816 107.176 119.025 105.985 119.025 104.57V73.6364ZM142.152 73.6364H153.719L165.937 103.443H166.456L178.674 73.6364H190.241V118H181.143V89.1246H180.775L169.294 117.783H163.099L151.618 89.0163H151.25V118H142.152V73.6364ZM219.796 118H204.069V73.6364H219.926C224.388 73.6364 228.229 74.5245 231.45 76.3008C234.67 78.0626 237.147 80.5971 238.88 83.9041C240.627 87.2112 241.501 91.1681 241.501 95.7749C241.501 100.396 240.627 104.367 238.88 107.689C237.147 111.01 234.656 113.559 231.406 115.336C228.172 117.112 224.301 118 219.796 118ZM213.449 109.963H219.406C222.178 109.963 224.511 109.472 226.403 108.49C228.309 107.494 229.738 105.956 230.692 103.876C231.659 101.782 232.143 99.0819 232.143 95.7749C232.143 92.4967 231.659 89.8178 230.692 87.7383C229.738 85.6587 228.316 84.128 226.424 83.1459C224.532 82.1639 222.2 81.6729 219.427 81.6729H213.449V109.963Z"/>
</mask>
<path d="M119.025 73.6364H128.297V104.57C128.297 107.429 127.654 109.913 126.369 112.021C125.098 114.13 123.329 115.754 121.062 116.895C118.794 118.036 116.159 118.607 113.155 118.607C110.483 118.607 108.057 118.137 105.877 117.199C103.71 116.245 101.992 114.801 100.721 112.866C99.4503 110.917 98.8221 108.469 98.8365 105.523H108.173C108.202 106.692 108.44 107.696 108.888 108.534C109.35 109.357 109.978 109.992 110.772 110.44C111.581 110.873 112.534 111.09 113.632 111.09C114.787 111.09 115.762 110.844 116.556 110.353C117.365 109.848 117.978 109.111 118.397 108.144C118.816 107.176 119.025 105.985 119.025 104.57V73.6364ZM142.152 73.6364H153.719L165.937 103.443H166.456L178.674 73.6364H190.241V118H181.143V89.1246H180.775L169.294 117.783H163.099L151.618 89.0163H151.25V118H142.152V73.6364ZM219.796 118H204.069V73.6364H219.926C224.388 73.6364 228.229 74.5245 231.45 76.3008C234.67 78.0626 237.147 80.5971 238.88 83.9041C240.627 87.2112 241.501 91.1681 241.501 95.7749C241.501 100.396 240.627 104.367 238.88 107.689C237.147 111.01 234.656 113.559 231.406 115.336C228.172 117.112 224.301 118 219.796 118ZM213.449 109.963H219.406C222.178 109.963 224.511 109.472 226.403 108.49C228.309 107.494 229.738 105.956 230.692 103.876C231.659 101.782 232.143 99.0819 232.143 95.7749C232.143 92.4967 231.659 89.8178 230.692 87.7383C229.738 85.6587 228.316 84.128 226.424 83.1459C224.532 82.1639 222.2 81.6729 219.427 81.6729H213.449V109.963Z" fill="url(#paint5_linear_0_1)"/>
<path d="M119.025 73.6364V72.6364H118.025V73.6364H119.025ZM128.297 73.6364H129.297V72.6364H128.297V73.6364ZM126.369 112.021L125.515 111.501L125.512 111.505L126.369 112.021ZM121.062 116.895L120.612 116.002V116.002L121.062 116.895ZM105.877 117.199L105.474 118.114L105.481 118.117L105.877 117.199ZM100.721 112.866L99.8834 113.412L99.8852 113.415L100.721 112.866ZM98.8365 105.523V104.523H97.8414L97.8365 105.518L98.8365 105.523ZM108.173 105.523L109.173 105.498L109.148 104.523H108.173V105.523ZM108.888 108.534L108.006 109.005L108.011 109.014L108.016 109.023L108.888 108.534ZM110.772 110.44L110.281 111.311L110.291 111.316L110.3 111.321L110.772 110.44ZM116.556 110.353L117.082 111.204L117.086 111.201L116.556 110.353ZM118.397 108.144L119.315 108.541V108.541L118.397 108.144ZM119.025 73.6364V74.6364H128.297V73.6364V72.6364H119.025V73.6364ZM128.297 73.6364H127.297V104.57H128.297H129.297V73.6364H128.297ZM128.297 104.57H127.297C127.297 107.275 126.69 109.573 125.515 111.501L126.369 112.021L127.223 112.542C128.618 110.253 129.297 107.583 129.297 104.57H128.297ZM126.369 112.021L125.512 111.505C124.342 113.447 122.716 114.943 120.612 116.002L121.062 116.895L121.511 117.789C123.941 116.566 125.854 114.813 127.225 112.538L126.369 112.021ZM121.062 116.895L120.612 116.002C118.508 117.061 116.031 117.607 113.155 117.607V118.607V119.607C116.286 119.607 119.081 119.011 121.511 117.789L121.062 116.895ZM113.155 118.607V117.607C110.602 117.607 108.313 117.159 106.272 116.28L105.877 117.199L105.481 118.117C107.802 119.116 110.364 119.607 113.155 119.607V118.607ZM105.877 117.199L106.279 116.283C104.286 115.406 102.719 114.087 101.557 112.317L100.721 112.866L99.8852 113.415C101.265 115.515 103.135 117.085 105.474 118.114L105.877 117.199ZM100.721 112.866L101.559 112.32C100.42 110.573 99.8228 108.33 99.8365 105.528L98.8365 105.523L97.8365 105.518C97.8214 108.608 98.4806 111.26 99.8834 113.412L100.721 112.866ZM98.8365 105.523V106.523H108.173V105.523V104.523H98.8365V105.523ZM108.173 105.523L107.173 105.547C107.205 106.838 107.469 108.002 108.006 109.005L108.888 108.534L109.77 108.062C109.411 107.391 109.198 106.547 109.173 105.498L108.173 105.523ZM108.888 108.534L108.016 109.023C108.564 110 109.322 110.77 110.281 111.311L110.772 110.44L111.263 109.569C110.634 109.214 110.135 108.714 109.76 108.044L108.888 108.534ZM110.772 110.44L110.3 111.321C111.28 111.846 112.402 112.09 113.632 112.09V111.09V110.09C112.667 110.09 111.882 109.9 111.244 109.559L110.772 110.44ZM113.632 111.09V112.09C114.929 112.09 116.096 111.813 117.082 111.204L116.556 110.353L116.03 109.503C115.428 109.875 114.645 110.09 113.632 110.09V111.09ZM116.556 110.353L117.086 111.201C118.085 110.577 118.824 109.674 119.315 108.541L118.397 108.144L117.48 107.747C117.132 108.549 116.645 109.119 116.026 109.505L116.556 110.353ZM118.397 108.144L119.315 108.541C119.803 107.413 120.025 106.077 120.025 104.57H119.025H118.025C118.025 105.892 117.829 106.939 117.48 107.747L118.397 108.144ZM119.025 104.57H120.025V73.6364H119.025H118.025V104.57H119.025ZM142.152 73.6364V72.6364H141.152V73.6364H142.152ZM153.719 73.6364L154.644 73.2571L154.39 72.6364H153.719V73.6364ZM165.937 103.443L165.011 103.822L165.266 104.443H165.937V103.443ZM166.456 103.443V104.443H167.127L167.382 103.822L166.456 103.443ZM178.674 73.6364V72.6364H178.003L177.748 73.2571L178.674 73.6364ZM190.241 73.6364H191.241V72.6364H190.241V73.6364ZM190.241 118V119H191.241V118H190.241ZM181.143 118H180.143V119H181.143V118ZM181.143 89.1246H182.143V88.1246H181.143V89.1246ZM180.775 89.1246V88.1246H180.098L179.847 88.7528L180.775 89.1246ZM169.294 117.783V118.783H169.971L170.222 118.155L169.294 117.783ZM163.099 117.783L162.17 118.154L162.421 118.783H163.099V117.783ZM151.618 89.0163L152.547 88.6457L152.296 88.0163H151.618V89.0163ZM151.25 89.0163V88.0163H150.25V89.0163H151.25ZM151.25 118V119H152.25V118H151.25ZM142.152 118H141.152V119H142.152V118ZM142.152 73.6364V74.6364H153.719V73.6364V72.6364H142.152V73.6364ZM153.719 73.6364L152.794 74.0156L165.011 103.822L165.937 103.443L166.862 103.064L154.644 73.2571L153.719 73.6364ZM165.937 103.443V104.443H166.456V103.443V102.443H165.937V103.443ZM166.456 103.443L167.382 103.822L179.599 74.0156L178.674 73.6364L177.748 73.2571L165.531 103.064L166.456 103.443ZM178.674 73.6364V74.6364H190.241V73.6364V72.6364H178.674V73.6364ZM190.241 73.6364H189.241V118H190.241H191.241V73.6364H190.241ZM190.241 118V117H181.143V118V119H190.241V118ZM181.143 118H182.143V89.1246H181.143H180.143V118H181.143ZM181.143 89.1246V88.1246H180.775V89.1246V90.1246H181.143V89.1246ZM180.775 89.1246L179.847 88.7528L168.366 117.412L169.294 117.783L170.222 118.155L181.703 89.4965L180.775 89.1246ZM169.294 117.783V116.783H163.099V117.783V118.783H169.294V117.783ZM163.099 117.783L164.028 117.413L152.547 88.6457L151.618 89.0163L150.689 89.387L162.17 118.154L163.099 117.783ZM151.618 89.0163V88.0163H151.25V89.0163V90.0163H151.618V89.0163ZM151.25 89.0163H150.25V118H151.25H152.25V89.0163H151.25ZM151.25 118V117H142.152V118V119H151.25V118ZM142.152 118H143.152V73.6364H142.152H141.152V118H142.152ZM204.069 118H203.069V119H204.069V118ZM204.069 73.6364V72.6364H203.069V73.6364H204.069ZM231.45 76.3008L230.967 77.1764L230.97 77.1781L231.45 76.3008ZM238.88 83.9041L237.994 84.3683L237.996 84.3713L238.88 83.9041ZM238.88 107.689L237.995 107.223L237.993 107.226L238.88 107.689ZM231.406 115.336L230.927 114.458L230.925 114.459L231.406 115.336ZM213.449 109.963H212.449V110.963H213.449V109.963ZM226.403 108.49L226.863 109.378L226.866 109.377L226.403 108.49ZM230.692 103.876L229.784 103.457L229.783 103.46L230.692 103.876ZM230.692 87.7383L229.783 88.1549L229.785 88.1601L230.692 87.7383ZM226.424 83.146L226.885 82.2584V82.2584L226.424 83.146ZM213.449 81.6729V80.6729H212.449V81.6729H213.449ZM219.796 118V117H204.069V118V119H219.796V118ZM204.069 118H205.069V73.6364H204.069H203.069V118H204.069ZM204.069 73.6364V74.6364H219.926V73.6364V72.6364H204.069V73.6364ZM219.926 73.6364V74.6364C224.255 74.6364 227.923 75.4974 230.967 77.1764L231.45 76.3008L231.933 75.4251C228.536 73.5516 224.521 72.6364 219.926 72.6364V73.6364ZM231.45 76.3008L230.97 77.1781C234.014 78.8435 236.351 81.2328 237.994 84.3683L238.88 83.9041L239.766 83.44C237.943 79.9614 235.326 77.2817 231.93 75.4235L231.45 76.3008ZM238.88 83.9041L237.996 84.3713C239.651 87.5048 240.501 91.2937 240.501 95.7749H241.501H242.501C242.501 91.0424 241.603 86.9176 239.764 83.4369L238.88 83.9041ZM241.501 95.7749H240.501C240.501 100.271 239.651 104.075 237.995 107.223L238.88 107.689L239.765 108.155C241.603 104.66 242.501 100.521 242.501 95.7749H241.501ZM238.88 107.689L237.993 107.226C236.351 110.375 234 112.778 230.927 114.458L231.406 115.336L231.886 116.213C235.311 114.341 237.943 111.646 239.766 108.151L238.88 107.689ZM231.406 115.336L230.925 114.459C227.867 116.138 224.17 117 219.796 117V118V119C224.433 119 228.476 118.085 231.888 116.212L231.406 115.336ZM213.449 109.963V110.963H219.406V109.963V108.963H213.449V109.963ZM219.406 109.963V110.963C222.292 110.963 224.793 110.453 226.863 109.378L226.403 108.49L225.942 107.603C224.229 108.492 222.065 108.963 219.406 108.963V109.963ZM226.403 108.49L226.866 109.377C228.982 108.271 230.561 106.561 231.601 104.293L230.692 103.876L229.783 103.46C228.916 105.351 227.636 106.717 225.939 107.604L226.403 108.49ZM230.692 103.876L231.599 104.296C232.648 102.026 233.143 99.1686 233.143 95.7749H232.143H231.143C231.143 98.9953 230.67 101.539 229.784 103.457L230.692 103.876ZM232.143 95.7749H233.143C233.143 92.409 232.648 89.5722 231.598 87.3164L230.692 87.7383L229.785 88.1601C230.671 90.0634 231.143 92.5844 231.143 95.7749H232.143ZM230.692 87.7383L231.601 87.3216C230.562 85.0554 228.989 83.3508 226.885 82.2584L226.424 83.146L225.964 84.0335C227.643 84.9051 228.915 86.2621 229.783 88.1549L230.692 87.7383ZM226.424 83.146L226.885 82.2584C224.814 81.1837 222.314 80.6729 219.427 80.6729V81.6729V82.6729C222.086 82.6729 224.25 83.1442 225.964 84.0335L226.424 83.146ZM219.427 81.6729V80.6729H213.449V81.6729V82.6729H219.427V81.6729ZM213.449 81.6729H212.449V109.963H213.449H214.449V81.6729H213.449Z" fill="url(#paint6_linear_0_1)" mask="url(#path-6-inside-1_0_1)"/>
</g>
<defs>
<linearGradient id="paint0_linear_0_1" x1="54" y1="8" x2="283" y2="8" gradientUnits="userSpaceOnUse">
<stop stop-color="#B8862D"/>
<stop offset="1" stop-color="#F3D07A"/>
</linearGradient>
<linearGradient id="paint1_linear_0_1" x1="155" y1="36" x2="167" y2="36" gradientUnits="userSpaceOnUse">
<stop stop-color="#B8862D"/>
<stop offset="1" stop-color="#F3D07A"/>
</linearGradient>
<linearGradient id="paint2_linear_0_1" x1="171" y1="36" x2="183" y2="36" gradientUnits="userSpaceOnUse">
<stop stop-color="#B8862D"/>
<stop offset="1" stop-color="#F3D07A"/>
</linearGradient>
<linearGradient id="paint3_linear_0_1" x1="155" y1="52" x2="167" y2="52" gradientUnits="userSpaceOnUse">
<stop stop-color="#B8862D"/>
<stop offset="1" stop-color="#F3D07A"/>
</linearGradient>
<linearGradient id="paint4_linear_0_1" x1="171" y1="52" x2="183" y2="52" gradientUnits="userSpaceOnUse">
<stop stop-color="#B8862D"/>
<stop offset="1" stop-color="#F3D07A"/>
</linearGradient>
<linearGradient id="paint5_linear_0_1" x1="171" y1="59" x2="171" y2="125" gradientUnits="userSpaceOnUse">
<stop stop-color="#F3D07A"/>
<stop offset="1" stop-color="#B8862D"/>
</linearGradient>
<linearGradient id="paint6_linear_0_1" x1="171" y1="59" x2="171" y2="125" gradientUnits="userSpaceOnUse">
<stop stop-color="#F3D07A"/>
<stop offset="1" stop-color="#B8862D"/>
</linearGradient>
<clipPath id="clip0_0_1">
<rect width="320" height="120" fill="white"/>
</clipPath>
</defs>
</svg>
